# xmcd
#
# Track frame offsets: 
#        150
#        15395
#        32525
#        48757
#        63700
#        79875
#        97132
#        112810
#        125462
#        140097
#        151075
#        164257
#
# Disc length: 2476 seconds
#
# Revision: 11
# Processed by: cddbd v1.5.2PL0 Copyright (c) Steve Scherf et al.
# Submitted via: ExactAudioCopyFreeDBPlugin 1.0
#
DISCID=9309aa0c
DTITLE=Various Artist - Didn't It Blow Your Mind!:  Soul Hits of the 
DTITLE='70s [Rhino series]
DYEAR=1991
DGENRE=SMB
TTITLE0=The Main Ingredient - Everybody Plays the Fool
TTITLE1=Bill Withers - Use Me
TTITLE2=The Soul Children - Hearsay
TTITLE3=Laura Lee - Rip Off
TTITLE4=Mel and Tim - Starting All Over Again
TTITLE5=Curtis Mayfield - Freddie's Dead
TTITLE6=Harold Melvin and The Blue Notes - If You Don't Know Me By Now
TTITLE7=Johnny Nash - I Can See Clearly Now
TTITLE8=The Isley Brothers - Work to Do
TTITLE9=The O'Jays - 992 Arguments
TTITLE10=The Four Tops - Keeper of the Castle
TTITLE11=Billy Paul - Me and Mrs. Jones
EXTD=YEAR: 1991
EXTT0=
EXTT1=
EXTT2=
EXTT3=
EXTT4=
EXTT5=
EXTT6=
EXTT7=
EXTT8=
EXTT9=
EXTT10=
EXTT11=
PLAYORDER=
